<svg width="20" height="19" viewBox="0 0 20 19" fill="none" xmlns="http://www.w3.org/2000/svg">
<ellipse cx="10" cy="9.5" rx="10" ry="9.5" fill="black"/>
<path d="M16.5488 5.19727L14.9082 14.3848C14.8717 14.5671 14.7897 14.7243 14.6621 14.8564C14.5345 14.9886 14.3796 15.0729 14.1973 15.1094C14.0104 15.1413 13.8327 15.1208 13.6641 15.0479C13.5 14.9749 13.3701 14.861 13.2744 14.7061L10.0205 9.36035L6.75977 14.7061C6.68229 14.8382 6.5752 14.9408 6.43848 15.0137C6.30632 15.0866 6.16276 15.123 6.00781 15.123C5.79362 15.123 5.60449 15.0547 5.44043 14.918C5.27637 14.7812 5.17611 14.6035 5.13965 14.3848L3.48535 5.19727H5.29004L6.46582 11.6709L9.26855 7.2002C9.34603 7.06803 9.45085 6.96549 9.58301 6.89258C9.71973 6.81966 9.86556 6.7832 10.0205 6.7832C10.1755 6.7832 10.319 6.81966 10.4512 6.89258C10.5833 6.96549 10.6927 7.06803 10.7793 7.2002L13.5684 11.6709L14.7441 5.19727H16.5488Z" fill="white"/>
</svg>
